<svg viewBox="0 0 18 18" fill="none" xmlns="http://www.w3.org/2000/svg">
<g id="icon-close" clip-path="url(#clip0_20_47)">
<g id="arrow-circle-left 1">
<path id="Vector" d="M9.00001 -10.5C5.14327 -10.5 1.37315 -9.35634 -1.83361 -7.21366C-5.04037 -5.07097 -7.53973 -2.02549 -9.01564 1.53767C-10.4916 5.10083 -10.8777 9.02163 -10.1253 12.8043C-9.37289 16.5869 -7.5157 20.0615 -4.78857 22.7886C-2.06145 25.5157 1.41312 27.3729 5.19575 28.1253C8.97838 28.8777 12.8992 28.4916 16.4623 27.0156C20.0255 25.5397 23.071 23.0404 25.2137 19.8336C27.3564 16.6269 28.5 12.8567 28.5 9C28.4945 3.82995 26.4383 -1.12678 22.7826 -4.78255C19.1268 -8.43833 14.1701 -10.4945 9.00001 -10.5ZM9.00001 25.5C5.73662 25.5 2.54651 24.5323 -0.166901 22.7192C-2.88031 20.9062 -4.99516 18.3293 -6.244 15.3143C-7.49285 12.2993 -7.8196 8.9817 -7.18295 5.78101C-6.54629 2.58032 -4.97482 -0.359695 -2.66725 -2.66726C-0.359687 -4.97483 2.58033 -6.5463 5.78102 -7.18296C8.9817 -7.81961 12.2993 -7.49286 15.3143 -6.24401C18.3293 -4.99517 20.9062 -2.88032 22.7193 -0.166909C24.5323 2.5465 25.5 5.73661 25.5 9C25.495 13.3745 23.7551 17.5685 20.6618 20.6618C17.5685 23.7551 13.3746 25.495 9.00001 25.5ZM18 9C18 9.39783 17.842 9.77936 17.5607 10.0607C17.2794 10.342 16.8978 10.5 16.5 10.5H5.12063L8.56126 13.9387C8.70062 14.0781 8.81117 14.2436 8.8866 14.4257C8.96202 14.6077 9.00084 14.8029 9.00084 15C9.00084 15.1971 8.96202 15.3923 8.8866 15.5743C8.81117 15.7564 8.70062 15.9219 8.56126 16.0613C8.42189 16.2006 8.25644 16.3112 8.07435 16.3866C7.89226 16.462 7.6971 16.5008 7.50001 16.5008C7.30292 16.5008 7.10775 16.462 6.92566 16.3866C6.74357 16.3112 6.57812 16.2006 6.43876 16.0613L0.438758 10.0613C0.299294 9.92194 0.188656 9.75651 0.113169 9.57441C0.0376825 9.39231 -0.00117111 9.19712 -0.00117111 9C-0.00117111 8.80288 0.0376825 8.60769 0.113169 8.42559C0.188656 8.24349 0.299294 8.07806 0.438758 7.93875L6.43876 1.93875C6.72022 1.65729 7.10196 1.49917 7.50001 1.49917C7.89805 1.49917 8.2798 1.65729 8.56126 1.93875C8.84272 2.22021 9.00084 2.60195 9.00084 3C9.00084 3.39805 8.84272 3.77979 8.56126 4.06125L5.12063 7.5H16.5C16.8978 7.5 17.2794 7.65804 17.5607 7.93934C17.842 8.22064 18 8.60217 18 9Z" fill="currentColor" />
</g>
</g>
<defs>
<clipPath id="clip0_20_47">
<rect width="18" height="18" fill="currentColor"/>
</clipPath>
</defs>
</svg>
