<?xml version="1.0" encoding="UTF-8"?>
<svg width="120px" height="120px" viewBox="0 0 120 120" version="1.1" xmlns="http://www.w3.org/2000/svg" xmlns:xlink="http://www.w3.org/1999/xlink">
    <title>形状</title>
    <defs>
        <radialGradient cx="112.5%" cy="-13.7498854%" fx="112.5%" fy="-13.7498854%" r="114.435%" gradientTransform="translate(1.125, -0.1375), scale(1, 1), rotate(96.2711), translate(-1.125, 0.1375)" id="radialGradient-1">
            <stop stop-color="#704BFF" offset="0%"></stop>
            <stop stop-color="#C549FF" offset="20.9352%"></stop>
        </radialGradient>
    </defs>
    <g id="页面-1" stroke="none" stroke-width="1" fill="none" fill-rule="evenodd">
        <path d="M0,23.0917 C0,10.3376 10.3387,0 23.0917,0 L120,0 L120,17.7182 C120,26.8848 112.569,34.3152 103.403,34.3152 L57.8407,34.3152 C45.0866,34.3152 34.749,44.6539 34.749,57.4079 L34.749,63.2834 C34.749,76.0375 45.0866,86.3751 57.8407,86.3751 L103.403,86.3751 C112.569,86.3751 120,93.8065 120,102.973 L120,120.001 L23.0917,120.001 C10.3387,120.001 0,109.661 0,96.9082 L0,23.0917 Z M58.8377,43.9722 L105.568,43.9722 C113.539,43.9722 120,50.4343 120,58.4044 L120,62.2861 C120,70.2573 113.539,76.7193 105.568,76.7193 L58.8377,76.7193 C50.8665,76.7193 44.4045,70.2573 44.4045,62.2861 L44.4045,58.4044 C44.4045,50.4343 50.8665,43.9722 58.8377,43.9722 Z" id="形状" fill="url(#radialGradient-1)"></path>
    </g>
</svg>