<?xml version="1.0" encoding="UTF-8"?>
<svg width="600px" height="600px" viewBox="0 0 600 600" version="1.1" xmlns="http://www.w3.org/2000/svg" xmlns:xlink="http://www.w3.org/1999/xlink">
    <title>编组</title>
    <g id="页面-1" stroke="none" stroke-width="1" fill="none" fill-rule="evenodd">
        <g id="编组">
            <circle id="椭圆形" fill="#EE0077" cx="300" cy="300" r="300"></circle>
            <path d="M544.228471,224.211442 L350.926669,249.595346 C349.830941,249.736674 348.805004,250.249293 348.00938,251.02712 L332.093405,266.830033 C330.111324,268.792224 326.911379,268.792224 324.929297,266.830033 L322.137633,264.05477 C320.138104,262.075131 320.138104,258.84029 322.137633,256.860302 L341.148866,237.999122 C343.144905,236.019483 343.144905,232.784642 341.148866,230.804654 L303.583884,193.471381 C301.603199,191.50954 298.402207,191.50954 296.421172,193.471381 L258.857587,230.804654 C256.859104,232.784642 256.859104,236.019483 258.857587,237.999122 L277.851721,256.878099 C279.850203,258.857738 279.850203,262.092579 277.851721,264.072567 L275.057265,266.84783 C273.076579,268.809672 269.875587,268.809672 267.894553,266.84783 L251.97788,251.044568 C251.181906,250.26709 250.156319,249.75447 249.059893,249.612793 L55.758091,224.211442 C50.9477048,223.574942 48.0649626,229.425921 51.5133657,232.837684 L93.6755197,274.731489 C96.8943084,277.931085 94.6306178,283.410773 90.1032366,283.410773 C85.5755063,283.410773 83.3118157,288.890461 86.5306044,292.090057 L126.03998,331.350276 C126.694276,331.986426 127.490249,332.446004 128.391957,332.675967 L262.872,366.367863 C263.968426,366.633072 264.923524,367.269222 265.630862,368.153133 L286.446905,394.579723 C290.160517,399.706265 296.421172,405.627734 296.421172,405.627734 C298.402207,407.589925 301.603199,407.589925 303.583884,405.627734 C303.583884,405.627734 308.765562,400.395457 313.5585,394.579723 L334.375591,368.153133 C335.063038,367.269222 336.036631,366.650519 337.132359,366.367863 L471.631246,332.675967 C472.51411,332.446004 473.327182,332.004223 473.983223,331.350276 L513.492249,292.090057 C516.709642,288.890461 514.448394,283.410773 509.918919,283.410773 C505.392934,283.410773 503.128196,277.931085 506.349079,274.731489 L548.510186,232.837684 C551.922995,229.425921 549.040602,223.592739 544.228471,224.211442 Z" id="路径" fill="#FFFFFF" fill-rule="nonzero"></path>
        </g>
    </g>
</svg>