<?xml version="1.0" encoding="UTF-8"?>
<svg width="256px" height="256px" viewBox="0 0 256 256" version="1.1" xmlns="http://www.w3.org/2000/svg" xmlns:xlink="http://www.w3.org/1999/xlink">
    <title>编组</title>
    <g id="页面-1" stroke="none" stroke-width="1" fill="none" fill-rule="evenodd">
        <g id="编组" fill-rule="nonzero">
            <path d="M236,0 L20,0 C8.954305,3.55271368e-15 -3.55271368e-15,8.954305 0,20 L0,236 C0,247.045695 8.954305,256 20,256 L236,256 C247.045695,256 256,247.045695 256,236 L256,20 C256,8.954305 247.045695,-3.55271368e-15 236,0 Z" id="路径" fill="#000000"></path>
            <path d="M43.3661202,161.563585 L43.3661202,205.139073 L107.55812,205.139073 L107.55812,195.465102 L52.7207869,195.465102 L52.7207869,161.563585 L43.3661202,161.563585 Z M204.67812,161.563585 L204.67812,195.465102 L149.840787,195.465102 L149.840787,205.128419 L214.032787,205.128419 L214.032787,161.552931 L204.67812,161.563585 Z M107.65412,95.2840968 L107.65412,161.574239 L149.840787,161.574239 L149.840787,152.859142 L117.008787,152.859142 L117.008787,95.2840968 L107.65412,95.2840968 Z M43.3661202,51.7086093 L43.3661202,95.2840968 L52.7207869,95.2840968 L52.7207869,61.3719264 L107.55812,61.3719264 L107.55812,51.7086093 L43.3661202,51.7086093 Z M149.840787,51.7086093 L149.840787,61.3719264 L204.67812,61.3719264 L204.67812,95.2734427 L214.032787,95.2734427 L214.032787,51.7086093 L149.840787,51.7086093 Z" id="形状" fill="#FFFFFF"></path>
        </g>
    </g>
</svg>